<svg xmlns="http://www.w3.org/2000/svg" width="16" height="10" viewBox="0 0 16 10"><g transform="translate(-4.886 -28.561)"><g transform="translate(4.886 28.561)"><g transform="translate(0 0)"><g transform="translate(2.123 1.217)"><path d="M22.917,38.665c-.467.629-1.62,0-2.15-.44.374.314.935.692.748,1.226-.249.66-1.153.44-1.651.252a.6.6,0,0,1,.218.755c-.312.472-1,.252-1,.252.125.44-.374.566-.374.566a1.677,1.677,0,0,1-.872-.063.538.538,0,0,1,.125-.094l.249-.189-.561-.5.031-.346a.621.621,0,0,0-.156-.472.932.932,0,0,0-.592-.252.667.667,0,0,0-.218-.629,1.033,1.033,0,0,0-1-.157h-.031a.843.843,0,0,0-.093-.377.9.9,0,0,0-.623-.44,1.2,1.2,0,0,0-.841.094c-.031,0-.062.031-.093.063a.7.7,0,0,0-.031-.252.954.954,0,0,0-.5-.566A.887.887,0,0,0,12.728,37a.853.853,0,0,0-.405.409c-.093-.094-.156-.157-.218-.157-.156,0-.28-.031-.405-.031,0-.031.031-.031.031-.063l1.807-4.118v-.031C13.632,33.1,17,32.66,17,32.66a1.026,1.026,0,0,1,1.028.063,4.386,4.386,0,0,0-.966.346,1.445,1.445,0,0,0-.9,1.069.316.316,0,0,1-.031.126l.031.094a1.606,1.606,0,0,0-.062.409v.094a5.34,5.34,0,0,1-.187,1.289,1.568,1.568,0,0,1-.093.44.529.529,0,0,0,.093.5.843.843,0,0,0,.748.126c.592-.063.935-.755,1.122-1.226l.031-.031V35.9c0-.031.031-.063.031-.094a2.563,2.563,0,0,1,.935.22.234.234,0,0,0,.125.031,4.073,4.073,0,0,0,1.62.157c.156.157.343.314.53.472l.125.126c.28.283.592.534.9.817a2.664,2.664,0,0,0,.685.472.956.956,0,0,0,.249.063A.7.7,0,0,1,22.917,38.665Z" transform="translate(-11.7 -32.524)" fill="#fff"/><path d="M33.57,37.369h0a.986.986,0,0,0-.374.249c-.436.436-.935.062-1.277-.28L30.89,36.4c-.218-.187-.405-.374-.592-.561a3.724,3.724,0,0,1-1.651-.125,2.957,2.957,0,0,0-1.246-.249.311.311,0,0,0-.156.125,1,1,0,0,0-.062.187h0c-.125.343-.405,1.059-.9,1.091,0,0-.685.156-.53-.312,0,0,.031-.187.093-.467a11.049,11.049,0,0,0,.187-1.34V34.72a2.144,2.144,0,0,0,.062-.405c.031-.187.062-.312.062-.312.218-1.059,1.932-1.184,2.742-1.464a1.809,1.809,0,0,1,1.215.093l1.838.5Z" transform="translate(-21.356 -32.467)" fill="#fff"/><g transform="translate(0.654 4.599)"><path d="M14.672,48.759a.435.435,0,0,1-.343,0,.712.712,0,0,1-.312-.218.849.849,0,0,1-.218-.623,1.232,1.232,0,0,1,.467-.9c.156-.093.374,0,.53.093a.792.792,0,0,1,.374.405,1.4,1.4,0,0,1-.28.966C14.859,48.635,14.8,48.728,14.672,48.759Z" transform="translate(-13.8 -46.976)" fill="#fff"/><path d="M19.31,50.351a1.8,1.8,0,0,1-.467.779,1.288,1.288,0,0,1-.748.53.774.774,0,0,1-.685-.405c-.125-.28.062-.592.187-.81a1.767,1.767,0,0,1,.561-.623,1.267,1.267,0,0,1,.685-.062.644.644,0,0,1,.436.312A.44.44,0,0,1,19.31,50.351Z" transform="translate(-16.256 -48.879)" fill="#fff"/><path d="M23.5,52.988a.031.031,0,0,1-.031.031,4.145,4.145,0,0,1-.436.592,1.258,1.258,0,0,1-.405.405c-.374.156-1.091-.187-.841-.654a4.453,4.453,0,0,1,.436-.623,1.249,1.249,0,0,1,.467-.436.75.75,0,0,1,.717.125A.4.4,0,0,1,23.5,52.988Z" transform="translate(-19.262 -50.613)" fill="#fff"/><path d="M25.5,56.059,26.341,55s.592,0,.561.436l-.031.5.405.374C27.307,56.277,26.03,57.306,25.5,56.059Z" transform="translate(-21.855 -52.5)" fill="#fff"/></g></g><path d="M8.349,30.358l-1-.436a.491.491,0,0,0-.623.249L4.921,34.221a.491.491,0,0,0,.249.623l1,.436a.508.508,0,0,0,.623-.218L8.6,30.981A.48.48,0,0,0,8.349,30.358Z" transform="translate(-4.886 -29.473)" fill="#fff"/><path d="M49.748,33.839l-1.9-4.923a.54.54,0,0,0-.717-.312l-1.215.467a.54.54,0,0,0-.312.717l1.869,4.923a.54.54,0,0,0,.717.312l1.215-.467A.567.567,0,0,0,49.748,33.839Z" transform="translate(-33.778 -28.561)" fill="#fff"/></g></g></g></svg>