<svg xmlns="http://www.w3.org/2000/svg" width="10.468" height="11.585" viewBox="0 0 10.468 11.585"><g transform="translate(-4.3 -2)"><g transform="translate(4.3 2)"><path d="M15.2,3.768c.093-.314.093-.786-.557-1.3A1.747,1.747,0,0,0,13.488,2c-1.159,0-1.994,1.375-2.412,2.279C10.659,3.375,9.825,2,8.665,2a1.747,1.747,0,0,0-1.159.471c-.649.511-.649.982-.557,1.3.417,1.179,3.385,1.65,3.988,1.729h.278C11.819,5.418,14.787,4.946,15.2,3.768Zm-7.466-.2c-.093-.2.046-.393.325-.629a1.189,1.189,0,0,1,.6-.275c.649,0,1.345,1.061,1.762,2.043C9.222,4.475,7.877,4.043,7.738,3.571Zm6.678,0c-.186.471-1.53.9-2.69,1.139.371-.864,1.067-2.043,1.762-2.043a.931.931,0,0,1,.6.275C14.369,3.179,14.508,3.375,14.416,3.571Z" transform="translate(-5.882 -2)" fill="#fff"/><path d="M4.339,14.043H8.464V12H5.007a.7.7,0,0,0-.707.707v1.336Z" transform="translate(-4.3 -7.815)" fill="#fff"/><path d="M17.2,11.939v2.043h4.125V12.607a.7.7,0,0,0-.707-.707H17.2Z" transform="translate(-10.857 -7.756)" fill="#fff"/><path d="M5.5,22.9H9.154v-4.2a.394.394,0,0,0-.393-.393H5.893a.394.394,0,0,0-.393.393Z" transform="translate(-5.029 -11.312)" fill="#fff"/><path d="M17.2,22.9h3.654v-4.2a.394.394,0,0,0-.393-.393H17.593a.394.394,0,0,0-.393.393Z" transform="translate(-10.857 -11.312)" fill="#fff"/></g></g></svg>