<svg xmlns="http://www.w3.org/2000/svg" width="14" height="9" viewBox="0 0 14 9"><path d="M34.1,65.066a7.046,7.046,0,0,1-1.65.359,2.464,2.464,0,0,0,1.264-1.256,6.694,6.694,0,0,1-1.825.551,3.265,3.265,0,0,0-2.1-.72,2.625,2.625,0,0,0-2.872,2.271,1.779,1.779,0,0,0,.074.518,9.012,9.012,0,0,1-5.922-2.374,1.921,1.921,0,0,0-.389,1.141,2.2,2.2,0,0,0,1.279,1.891,3.389,3.389,0,0,1-1.3-.284v.028a2.483,2.483,0,0,0,2.305,2.227,3.617,3.617,0,0,1-.757.08,3.408,3.408,0,0,1-.54-.042,2.876,2.876,0,0,0,2.685,1.577,6.788,6.788,0,0,1-3.569.973c-.231,0-.46-.012-.685-.033A9.652,9.652,0,0,0,24.5,73c5.287,0,8.176-3.462,8.176-6.464,0-.1,0-.2-.009-.293A5.384,5.384,0,0,0,34.1,65.066Z" transform="translate(-20.1 -64)" fill="#fff"/></svg>